<svg width="32" height="32" viewBox="0 0 32 32" fill="none" xmlns="http://www.w3.org/2000/svg">
  <rect width="32" height="32" rx="7" fill="#0a0a0f"/>
  <g transform="translate(3, 2) scale(0.82)">
    <path d="M16 5C11.5 3 7 6 5.5 11C4 16 5 19 7 22C5 23.5 4 26.5 5 29.5C6 32.5 10 34 14 33C15 32.8 15.5 32 16 31"
          stroke="url(#fav-g)" stroke-width="2" fill="none" stroke-linecap="round"/>
    <path d="M16 5C20.5 3 25 6 26.5 11C28 16 27 19 25 22C27 23.5 28 26.5 27 29.5C26 32.5 22 34 18 33C17 32.8 16.5 32 16 31"
          stroke="url(#fav-g)" stroke-width="2" fill="none" stroke-linecap="round"/>
    <path d="M8 13C10 14 12 12 14 14" stroke="url(#fav-g)" stroke-width="1.2" fill="none" stroke-linecap="round" opacity="0.6"/>
    <path d="M18 14C20 12 22 14 24 13" stroke="url(#fav-g)" stroke-width="1.2" fill="none" stroke-linecap="round" opacity="0.6"/>
    <path d="M7 18C9 19 12 17 15 19" stroke="url(#fav-g)" stroke-width="1.2" fill="none" stroke-linecap="round" opacity="0.5"/>
    <path d="M17 19C20 17 23 19 25 18" stroke="url(#fav-g)" stroke-width="1.2" fill="none" stroke-linecap="round" opacity="0.5"/>
    <circle cx="11" cy="12" r="2" fill="#f5b400" opacity="0.4"/>
    <circle cx="21" cy="13" r="1.8" fill="#29a167" opacity="0.4"/>
  </g>
  <defs>
    <linearGradient id="fav-g" x1="3" y1="2" x2="29" y2="30">
      <stop offset="0%" stop-color="#cb6be5"/>
      <stop offset="50%" stop-color="#2d1b4e"/>
      <stop offset="100%" stop-color="#29a167"/>
    </linearGradient>
  </defs>
</svg>
