<svg width="32" height="32" viewBox="0 0 32 32" fill="none" xmlns="http://www.w3.org/2000/svg">
  <rect width="32" height="32" rx="8" fill="#050507"/>
  <g transform="translate(4, 3)">
    <path d="M12 3C8 3 5 7 5 12C5 15.5 7 18 9 20C7.5 21.5 6.5 24 7.5 27C8.5 29.5 12 30.5 14.5 29.5" stroke="url(#fg)" stroke-width="1.5" fill="none" stroke-linecap="round"/>
    <path d="M12 3C16 3 19 7 19 12C19 15.5 17 18 15 20C16.5 21.5 17.5 24 16.5 27C15.5 29.5 12 30.5 9.5 29.5" stroke="url(#fg)" stroke-width="1.5" fill="none" stroke-linecap="round"/>
    <circle cx="9.5" cy="10" r="2.5" fill="url(#fg)" opacity="0.8"/>
    <circle cx="14.5" cy="11" r="2" fill="url(#fg2)" opacity="0.7"/>
    <circle cx="12" cy="17" r="1.5" fill="url(#fg)" opacity="0.5"/>
  </g>
  <defs>
    <linearGradient id="fg" x1="5" y1="3" x2="19" y2="30"><stop stop-color="#7c6aff"/><stop offset="1" stop-color="#4ade80"/></linearGradient>
    <linearGradient id="fg2" x1="0" y1="0" x2="1" y2="1"><stop stop-color="#4ade80"/><stop offset="1" stop-color="#7c6aff"/></linearGradient>
  </defs>
</svg>
